# xmcd CD database file
#
# Track frame offsets:
#	150
#	26250
#	42375
#	61875
#	79950
#	97200
#	111075
#	130125
#	144225
#	164250
#	180825
#
# Disc length: 2642 seconds
#
# Revision: 1
# Processed by: cddbd v1.5.2PL0 Copyright (c) Steve Scherf et al.
# Submitted via: CDex 1.97
#
DISCID=890a500b
DTITLE=Memphis Piano Red, Guitar Slim - Old Time Barrelhouse Blues
DYEAR=1900
DGENRE=Blues
TTITLE0=Walkin' Boogie  (Guitar Slim)
TTITLE1=Rocky Mountain Blues (Memphis Piano Red)
TTITLE2=Red's Boogie (Memphis Piano Red)
TTITLE3=Outdoor Weather Blues   (Guitar Slim)
TTITLE4=Betty and Dupree  (Guitar Slim)
TTITLE5=Red's Delight (Memphis Piano Red)
TTITLE6=Mr. Grinder (Memphis Piano Red)
TTITLE7=Did You Get That Letter  (Guitar Slim)
TTITLE8=My Life Is So Miserable (Memphis Piano Red)
TTITLE9=Hard Headed Blues  (Guitar Slim)
TTITLE10=Blues With A Feelin' (Memphis Piano Red)
EXTD=
EXTT0=
EXTT1=
EXTT2=
EXTT3=
EXTT4=
EXTT5=
EXTT6=
EXTT7=
EXTT8=
EXTT9=
EXTT10=
PLAYORDER=
